<?xml version="1.0" standalone="no"?>
<!DOCTYPE svg PUBLIC "-//W3C//DTD SVG 20010904//EN"
 "http://www.w3.org/TR/2001/REC-SVG-20010904/DTD/svg10.dtd">
<svg version="1.0" xmlns="http://www.w3.org/2000/svg"
 width="96.000000pt" height="96.000000pt" viewBox="0 0 96.000000 96.000000"
 preserveAspectRatio="xMidYMid meet">

<g transform="translate(0.000000,96.000000) scale(0.100000,-0.100000)"
fill="#000000" stroke="none">
<path d="M419 944 c54 -24 140 -43 236 -52 108 -11 123 -7 98 21 -18 20 -18
20 17 14 19 -4 65 -22 101 -40 36 -18 71 -31 77 -29 7 2 12 24 12 53 l0 49
-287 -1 c-262 -1 -285 -2 -254 -15z"/>
<path d="M0 560 c0 -326 1 -340 19 -340 43 0 161 -33 161 -45 0 -12 86 -55
109 -55 6 0 40 -14 76 -31 75 -35 367 -98 373 -80 2 7 12 7 28 0 14 -5 63 -9
110 -9 66 0 84 3 84 14 0 8 -6 17 -12 19 -10 4 -10 6 0 6 9 1 12 73 12 326 l0
324 -66 21 c-36 11 -71 20 -78 20 -6 0 -20 14 -31 30 -34 52 -169 92 -365 110
-287 25 -349 30 -383 30 l-37 0 0 -340z m165 310 c-3 -5 -18 -10 -33 -10 -21
0 -24 2 -12 10 20 13 53 13 45 0z m237 -202 c5 -14 127 -11 145 4 8 7 28 5 61
-6 41 -14 51 -22 55 -46 4 -16 15 -31 25 -34 13 -5 24 -25 35 -69 41 -160 38
-175 -49 -218 -63 -31 -65 -31 -79 -13 -19 26 -19 32 5 39 11 3 20 11 20 16 0
11 3 12 -45 -6 -51 -18 -139 -19 -198 -1 -47 14 -65 7 -26 -10 20 -9 20 -10 2
-32 l-18 -23 -65 33 c-63 32 -65 34 -68 76 -4 60 14 141 49 210 26 53 34 60
76 74 60 20 70 21 75 6z m-132 -498 c12 -8 9 -10 -12 -10 -15 0 -30 5 -33 10
-8 13 25 13 45 0z m409 -96 c2 -2 -10 -4 -27 -4 -17 0 -34 4 -37 10 -5 9 53 3
64 -6z"/>
<path d="M623 609 c-9 -9 -9 -16 -2 -25 7 -9 6 -19 -3 -33 -17 -28 -3 -38 22
-16 23 21 25 44 7 68 -10 14 -15 15 -24 6z"/>
<path d="M635 510 c-10 -16 5 -31 25 -25 11 4 22 0 27 -9 5 -10 13 -12 22 -7
23 15 -5 51 -39 51 -16 0 -32 -4 -35 -10z"/>
<path d="M337 471 c-11 -42 28 -80 67 -65 19 7 33 52 20 63 -5 5 -25 11 -46
14 -29 4 -37 2 -41 -12z"/>
<path d="M552 480 c-43 -10 -47 -15 -34 -44 24 -52 97 -34 90 23 -3 29 -11 32
-56 21z"/>
<path d="M49 152 c43 -30 209 -95 185 -73 -21 21 -142 79 -174 84 l-35 6 24
-17z"/>
<path d="M300 10 c-11 -7 3 -9 45 -9 48 1 54 3 30 9 -43 11 -58 11 -75 0z"/>
</g>
</svg>
